<svg width="8507" height="1055" viewBox="0 0 8507 1055" fill="none" xmlns="http://www.w3.org/2000/svg">
<g clip-path="url(#clip0)">
<path d="M2031.53 531.364C2031.53 293.438 1883.81 157.784 1690.98 157.784C1497.09 157.784 1350.43 293.438 1350.43 531.364C1350.43 768.224 1497.09 904.943 1690.98 904.943C1883.81 904.943 2031.53 769.29 2031.53 531.364ZM1875.64 531.364C1875.64 685.483 1802.49 768.935 1690.98 768.935C1579.12 768.935 1506.32 685.483 1506.32 531.364C1506.32 377.244 1579.12 293.793 1690.98 293.793C1802.49 293.793 1875.64 377.244 1875.64 531.364ZM2173.96 167.727V895H2300.38V394.29H2307.13L2508.12 892.869H2602.58L2803.58 395.355H2810.32V895H2936.74V167.727H2775.52L2559.61 694.716H2551.09L2335.18 167.727H2173.96ZM3697.87 167.727H3566.83V663.466H3560.44L3218.11 167.727H3100.21V895H3231.96V399.616H3237.99L3580.68 895H3697.87V167.727ZM3993.17 167.727H3861.42V895H3993.17V167.727ZM4202 167.727H4109.67L4376.72 895H4467.62L4734.67 167.727H4642.34L4426.43 779.943H4417.91L4202 167.727ZM4867.95 895H5312.55V816.875H4956.02V569.716H5284.14V491.591H4956.02V245.852H5306.87V167.727H4867.95V895ZM5485.61 895H5573.68V610.909H5732.77C5739.16 610.909 5745.2 610.909 5751.23 610.554L5904.64 895H6006.91L5842.5 594.574C5935.18 562.969 5978.5 487.33 5978.5 390.739C5978.5 262.188 5901.8 167.727 5731.35 167.727H5485.61V895ZM5573.68 531.364V245.852H5728.5C5846.4 245.852 5891.86 303.381 5891.86 390.739C5891.86 478.097 5846.4 531.364 5729.93 531.364H5573.68ZM6542.98 349.545H6628.21C6624.3 239.815 6523.1 157.784 6382.47 157.784C6243.27 157.784 6133.89 238.75 6133.89 360.909C6133.89 458.92 6204.91 517.159 6318.55 549.83L6408.04 575.398C6484.74 596.705 6552.93 623.693 6552.93 696.136C6552.93 775.682 6476.22 828.239 6375.37 828.239C6288.72 828.239 6212.02 789.886 6204.91 707.5H6114.01C6122.53 826.818 6219.12 907.784 6375.37 907.784C6542.98 907.784 6638.15 815.455 6638.15 697.557C6638.15 561.193 6508.89 517.159 6433.61 497.273L6359.74 477.386C6305.77 463.182 6219.12 434.773 6219.12 356.648C6219.12 287.045 6283.04 235.909 6379.63 235.909C6467.7 235.909 6534.46 277.812 6542.98 349.545ZM6891.02 167.727H6802.95V895H6891.02V167.727ZM7047.83 245.852H7276.52V895H7364.59V245.852H7593.28V167.727H7047.83V245.852ZM7686.7 167.727L7949.49 595.284V895H8037.55V595.284L8300.34 167.727H8199.49L7997.78 507.216H7989.26L7787.55 167.727H7686.7Z" fill="white"/>
<g filter="url(#filter0_d)">
<circle cx="700" cy="531" r="500" fill="url(#paint0_linear)"/>
<circle cx="700" cy="531" r="475" stroke="#FCFCFC" stroke-width="50"/>
</g>
<g filter="url(#filter1_i)">
<path d="M722.668 348.395L982.275 608.002C994.795 620.523 994.795 640.822 982.275 653.341L951.996 683.62C939.497 696.119 919.239 696.143 906.71 683.673L699.998 477.931L493.287 683.675C480.758 696.144 460.501 696.12 448.001 683.621L417.722 653.342C405.202 640.822 405.202 620.523 417.722 608.003L677.329 348.396C689.848 335.876 710.148 335.876 722.668 348.395Z" fill="#FCFCFC"/>
</g>
</g>
<defs>
<filter id="filter0_d" x="194" y="25" width="1020" height="1020" filterUnits="userSpaceOnUse" color-interpolation-filters="sRGB">
<feFlood flood-opacity="0" result="BackgroundImageFix"/>
<feColorMatrix in="SourceAlpha" type="matrix" values="0 0 0 0 0 0 0 0 0 0 0 0 0 0 0 0 0 0 127 0" result="hardAlpha"/>
<feOffset dx="4" dy="4"/>
<feGaussianBlur stdDeviation="5"/>
<feComposite in2="hardAlpha" operator="out"/>
<feColorMatrix type="matrix" values="0 0 0 0 0.395729 0 0 0 0 0.487925 0 0 0 0 0.725 0 0 0 0.25 0"/>
<feBlend mode="normal" in2="BackgroundImageFix" result="effect1_dropShadow"/>
<feBlend mode="normal" in="SourceGraphic" in2="effect1_dropShadow" result="shape"/>
</filter>
<filter id="filter1_i" x="350" y="166" width="700" height="704" filterUnits="userSpaceOnUse" color-interpolation-filters="sRGB">
<feFlood flood-opacity="0" result="BackgroundImageFix"/>
<feBlend mode="normal" in="SourceGraphic" in2="BackgroundImageFix" result="shape"/>
<feColorMatrix in="SourceAlpha" type="matrix" values="0 0 0 0 0 0 0 0 0 0 0 0 0 0 0 0 0 0 127 0" result="hardAlpha"/>
<feOffset dy="4"/>
<feGaussianBlur stdDeviation="3"/>
<feComposite in2="hardAlpha" operator="arithmetic" k2="-1" k3="1"/>
<feColorMatrix type="matrix" values="0 0 0 0 0.0517132 0 0 0 0 0.0431597 0 0 0 0 0.470833 0 0 0 0.56 0"/>
<feBlend mode="normal" in2="shape" result="effect1_innerShadow"/>
</filter>
<linearGradient id="paint0_linear" x1="425.5" y1="406.5" x2="1135.34" y2="774.768" gradientUnits="userSpaceOnUse">
<stop stop-color="#045DE9"/>
<stop offset="1" stop-color="#09C6F9"/>
</linearGradient>
<clipPath id="clip0">
<rect width="8507" height="1055" fill="white"/>
</clipPath>
</defs>
</svg>
